# Blender 5.1.1
# www.blender.org
o skel_chicken
v 0.000000 0.292158 0.144410
v 0.000000 0.285486 0.149623
v 0.001990 0.284318 0.148967
v 0.004064 0.290364 0.141392
v 0.006476 0.285842 0.133540
v 0.002936 0.282175 0.147419
v 0.000000 0.278684 0.150823
v 0.009539 0.301420 0.116341
v 0.000000 0.308500 0.120616
v 0.002840 0.302915 0.127998
v 0.006585 0.292026 0.130114
v 0.009493 0.283001 0.126003
v 0.010149 0.301401 0.097895
v 0.000000 0.311490 0.104150
v 0.000000 0.281142 0.147348
v 0.000000 0.281983 0.133092
v 0.002962 0.282147 0.132910
v 0.000000 0.294266 0.141185
v 0.003265 0.296500 0.135242
v 0.015178 0.267932 0.097096
v -0.000000 0.305278 0.092633
v 0.010193 0.275245 0.124548
v 0.010193 0.275245 0.124548
v 0.002962 0.282147 0.132910
v 0.000000 0.297635 0.136779
v 0.000000 0.297820 0.139474
v 0.000000 0.302397 0.130961
v 0.000000 0.309759 0.127322
v 0.000000 0.303292 0.135959
v 0.057592 0.190183 0.041785
v 0.069023 0.174685 0.030037
v 0.020614 0.074893 0.017870
v 0.027070 0.073491 -0.009171
v -0.000000 0.095473 -0.054878
v 0.029891 0.104574 -0.048010
v 0.026494 0.125052 -0.068179
v -0.000000 0.113610 -0.076322
v 0.000000 0.196804 -0.013423
v 0.063097 0.167194 -0.010176
v 0.063978 0.088269 -0.006768
v 0.059425 0.092053 0.030002
v 0.050720 0.085453 -0.028836
v 0.063978 0.088269 -0.006768
v 0.059425 0.092053 0.030002
v 0.050720 0.085453 -0.028836
v 0.020614 0.074893 0.017870
v 0.020614 0.074893 0.017870
v 0.027070 0.073491 -0.009171
v -0.000002 0.193675 -0.076531
v 0.037904 0.006951 -0.011813
v 0.035362 0.002084 -0.010970
v 0.041207 0.002084 -0.012067
v 0.041207 0.002084 -0.012067
v 0.046861 0.000728 0.060516
v 0.041622 0.007103 0.060325
v 0.036444 0.000728 0.060325
v 0.046861 0.000728 0.060516
v 0.036444 0.000728 0.060325
v 0.073605 0.000728 0.034901
v 0.076881 0.005387 0.032245
v 0.077451 0.000728 0.029077
v 0.073605 0.000728 0.034901
v 0.077451 0.000728 0.029077
v 0.009922 0.006940 0.041727
v 0.014555 0.000728 0.042096
v 0.008380 0.000728 0.037730
v 0.014555 0.000728 0.042096
v 0.008380 0.000728 0.037730
v 0.081729 0.000728 0.036447
v 0.081729 0.000728 0.036447
v 0.041848 0.000728 0.070179
v 0.041848 0.000728 0.070179
v 0.007380 0.000728 0.045774
v 0.007380 0.000728 0.045774
v 0.036588 0.000726 -0.018268
v 0.035362 0.002084 -0.010970
v 0.036588 0.000726 -0.018268
v -0.000002 0.207990 -0.094022
v 0.018564 0.210742 -0.087280
v -0.000002 0.217261 -0.057775
v 0.009503 0.231165 -0.106480
v -0.000002 0.226104 -0.110663
v -0.000002 0.241257 -0.130800
v -0.000002 0.240254 -0.105772
v -0.000002 0.229078 -0.074872
v 0.019190 0.214879 -0.121801
v 0.015298 0.223574 -0.109591
v 0.001888 0.192880 -0.133231
v 0.012514 0.200511 -0.120406
v 0.014527 0.233295 -0.137121
v 0.014957 0.219299 -0.133787
v 0.006277 0.213920 -0.135292
v -0.000002 0.176335 -0.091303
v -0.000002 0.203283 -0.122807
v 0.018564 0.209641 -0.114961
v 0.009503 0.224752 -0.144449
v -0.000002 0.222620 -0.152968
v -0.000002 0.193675 -0.076531
v 0.026159 0.209595 0.039298
v 0.028796 0.217530 0.052089
v 0.026159 0.209595 0.039298
v 0.048295 0.219983 0.067957
v 0.048295 0.219983 0.067957
v 0.047124 0.208601 0.093872
v 0.026159 0.209595 0.039298
v 0.048295 0.219983 0.067957
v 0.026159 0.209595 0.039298
v 0.028796 0.217530 0.052089
v 0.035165 0.215257 0.050052
v 0.048377 0.220412 0.067545
v 0.047455 0.216462 0.082620
v 0.047124 0.208601 0.093872
v 0.057074 0.162816 0.094555
v 0.073055 0.192888 0.054197
v 0.074959 0.139407 0.060267
v 0.082080 0.177717 0.033715
v 0.078086 0.130353 0.032449
v 0.033202 0.206683 0.026479
v 0.032872 0.198120 0.014486
v 0.073919 0.171955 -0.010142
v 0.037336 0.191580 -0.024992
v 0.051707 0.163828 -0.046165
v 0.041869 0.182257 -0.037809
v 0.079860 0.128105 -0.009302
v 0.058651 0.138806 -0.041905
v 0.047124 0.208601 0.093872
v 0.048295 0.219983 0.067957
v 0.057074 0.162816 0.094555
v 0.074959 0.139407 0.060267
v 0.078086 0.130353 0.032449
v 0.026159 0.209595 0.039298
v 0.033202 0.206683 0.026479
v 0.032872 0.198120 0.014486
v 0.037336 0.191580 -0.024992
v 0.062584 0.166163 -0.010142
v 0.041869 0.182257 -0.037809
v 0.051707 0.163828 -0.046165
v 0.058651 0.138806 -0.041905
v 0.079860 0.128105 -0.009302
v 0.018952 0.214879 -0.121801
v 0.015059 0.223574 -0.109591
v 0.012276 0.200511 -0.120406
v 0.001650 0.192880 -0.133231
v -0.000002 0.143676 -0.093667
v 0.014289 0.233295 -0.137121
v 0.014719 0.219299 -0.133787
v 0.006039 0.213920 -0.135292
v 0.018326 0.209641 -0.114961
v -0.000002 0.203365 -0.122707
v -0.000002 0.176335 -0.091303
v 0.009265 0.224752 -0.144449
v -0.000002 0.222620 -0.152968
v 0.000000 0.292158 0.144410
v -0.004064 0.290364 0.141392
v -0.001990 0.284318 0.148967
v 0.000000 0.285486 0.149623
v -0.006476 0.285842 0.133540
v -0.002936 0.282175 0.147419
v 0.000000 0.278684 0.150823
v -0.009539 0.301420 0.116341
v -0.006585 0.292026 0.130114
v -0.002840 0.302915 0.127998
v 0.000000 0.308500 0.120616
v -0.009493 0.283000 0.126003
v -0.010149 0.301401 0.097895
v 0.000000 0.311490 0.104150
v 0.000000 0.281142 0.147348
v -0.002962 0.282147 0.132910
v 0.000000 0.281983 0.133092
v 0.000000 0.294266 0.141185
v -0.003265 0.296500 0.135242
v -0.015182 0.267932 0.097096
v -0.000000 0.305278 0.092633
v -0.010193 0.275245 0.124548
v -0.002962 0.282147 0.132910
v -0.010193 0.275245 0.124548
v 0.000000 0.297635 0.136779
v 0.000000 0.302397 0.130961
v 0.000000 0.309759 0.127322
v 0.000000 0.303292 0.135959
v -0.057596 0.190183 0.041786
v -0.069027 0.174685 0.030038
v -0.020620 0.074893 0.017870
v -0.027076 0.073491 -0.009172
v -0.000000 0.095473 -0.054878
v -0.029891 0.104574 -0.048010
v -0.026494 0.125052 -0.068179
v -0.000000 0.113610 -0.076322
v 0.000000 0.196804 -0.013423
v -0.063097 0.167194 -0.010175
v -0.069410 0.119762 -0.008817
v -0.063984 0.088269 -0.006768
v -0.059431 0.092053 0.030002
v -0.050726 0.085454 -0.028837
v -0.063984 0.088269 -0.006768
v -0.059431 0.092053 0.030002
v -0.050726 0.085454 -0.028837
v -0.020620 0.074893 0.017870
v -0.020620 0.074893 0.017870
v -0.027076 0.073491 -0.009172
v -0.000002 0.193675 -0.076531
v -0.037912 0.006951 -0.011815
v -0.041215 0.002084 -0.012070
v -0.035370 0.002084 -0.010972
v -0.041215 0.002084 -0.012070
v -0.046869 0.000728 0.060514
v -0.041630 0.007103 0.060323
v -0.036452 0.000728 0.060323
v -0.046869 0.000728 0.060514
v -0.036452 0.000728 0.060323
v -0.076889 0.005387 0.032244
v -0.073613 0.000728 0.034899
v -0.077459 0.000728 0.029075
v -0.073613 0.000728 0.034899
v -0.077459 0.000728 0.029075
v -0.014563 0.000728 0.042095
v -0.009930 0.006940 0.041726
v -0.008388 0.000728 0.037729
v -0.014563 0.000728 0.042095
v -0.008388 0.000728 0.037729
v -0.081737 0.000728 0.036446
v -0.081737 0.000728 0.036446
v -0.041856 0.000728 0.070177
v -0.041856 0.000728 0.070177
v -0.007387 0.000728 0.045772
v -0.007387 0.000728 0.045772
v -0.035370 0.002084 -0.010972
v -0.036596 0.000726 -0.018271
v -0.036596 0.000726 -0.018271
v -0.018568 0.210742 -0.087280
v -0.000002 0.207990 -0.094022
v -0.000002 0.217261 -0.057775
v -0.009507 0.231165 -0.106480
v -0.000002 0.241257 -0.130800
v -0.000002 0.226104 -0.110663
v -0.000002 0.240254 -0.105772
v -0.000002 0.229078 -0.074872
v -0.019194 0.214879 -0.121801
v -0.015302 0.223574 -0.109591
v -0.001892 0.192880 -0.133231
v -0.012518 0.200511 -0.120406
v -0.014531 0.233295 -0.137121
v -0.014961 0.219299 -0.133787
v -0.006281 0.213920 -0.135292
v -0.018568 0.209641 -0.114961
v -0.000002 0.203283 -0.122807
v -0.000002 0.176335 -0.091303
v -0.009507 0.224752 -0.144449
v -0.000002 0.222620 -0.152968
v -0.000002 0.193675 -0.076531
v -0.026165 0.209595 0.039298
v -0.026165 0.209595 0.039298
v -0.028802 0.217530 0.052089
v -0.047129 0.208601 0.093872
v -0.048300 0.219983 0.067957
v -0.048300 0.219983 0.067957
v -0.048300 0.219983 0.067957
v -0.026165 0.209595 0.039298
v -0.026165 0.209595 0.039298
v -0.035171 0.215257 0.050052
v -0.028802 0.217530 0.052089
v -0.048383 0.220412 0.067545
v -0.047461 0.216462 0.082621
v -0.047129 0.208601 0.093872
v -0.073060 0.192888 0.054197
v -0.057079 0.162816 0.094555
v -0.082085 0.177718 0.033715
v -0.074965 0.139407 0.060267
v -0.078091 0.130353 0.032449
v -0.033207 0.206683 0.026479
v -0.032877 0.198120 0.014486
v -0.037342 0.191580 -0.024992
v -0.073924 0.171955 -0.010141
v -0.041874 0.182257 -0.037809
v -0.051712 0.163828 -0.046165
v -0.058656 0.138806 -0.041905
v -0.079866 0.128106 -0.009302
v -0.047129 0.208601 0.093872
v -0.057079 0.162816 0.094555
v -0.058649 0.190413 0.041800
v -0.048300 0.219983 0.067957
v -0.074965 0.139407 0.060267
v -0.070080 0.174905 0.030064
v -0.078091 0.130353 0.032449
v -0.026165 0.209595 0.039298
v -0.033207 0.206683 0.026479
v -0.032877 0.198120 0.014486
v -0.062590 0.166163 -0.010141
v -0.037342 0.191580 -0.024992
v -0.051712 0.163828 -0.046165
v -0.041874 0.182257 -0.037809
v -0.079866 0.128106 -0.009302
v -0.058656 0.138806 -0.041905
v -0.018956 0.214879 -0.121801
v -0.015064 0.223574 -0.109591
v -0.000002 0.143676 -0.093667
v -0.001654 0.192880 -0.133231
v -0.012280 0.200511 -0.120406
v -0.014293 0.233295 -0.137121
v -0.014723 0.219299 -0.133787
v -0.006043 0.213920 -0.135292
v -0.018330 0.209641 -0.114961
v -0.000002 0.176335 -0.091303
v -0.000002 0.203365 -0.122707
v -0.009269 0.224752 -0.144449
v -0.000002 0.222620 -0.152968
v 0.014752 0.280823 0.117115
v 0.013355 0.264496 0.110188
v 0.012107 0.277511 0.083882
v -0.000001 0.288164 0.080708
v 0.014752 0.280823 0.117115
v -0.000000 0.273064 0.124553
v -0.000002 0.257670 0.120218
v 0.007574 0.259851 0.116542
v 0.021378 0.240099 0.087546
v 0.019522 0.217909 0.108445
v 0.013985 0.249240 0.070429
v 0.012906 0.214123 0.119319
v -0.000002 0.212341 0.125251
v -0.000002 0.254170 0.065421
v 0.041215 0.219007 0.086494
v 0.037661 0.226125 0.076111
v -0.000002 0.158334 0.125440
v 0.032636 0.160786 0.113816
v 0.051128 0.162263 0.094675
v -0.000002 0.217912 0.041641
v 0.043177 0.209835 0.094019
v 0.039494 0.221227 0.077489
v 0.073149 0.139171 0.060215
v -0.000002 0.115953 0.101913
v 0.040297 0.126391 0.089587
v -0.000002 0.096919 0.068969
v 0.041024 0.108204 0.063422
v -0.000003 0.074282 0.024572
v -0.000003 0.067208 -0.002554
v -0.000001 0.135163 -0.086863
v 0.013894 0.139165 -0.083435
v 0.036236 0.169598 -0.046003
v -0.000002 0.201021 -0.047436
v 0.068536 0.123959 0.033094
v 0.069406 0.119743 -0.008830
v 0.054779 0.131032 -0.041001
v 0.047044 0.054282 0.007437
v 0.046400 0.053871 -0.001304
v 0.039138 0.053822 -0.002443
v 0.041024 0.108204 0.063422
v 0.038837 0.054295 0.006924
v 0.039138 0.053822 -0.002443
v 0.026508 0.169029 -0.071596
v 0.013894 0.139165 -0.083435
v 0.020459 0.191403 -0.070565
v 0.026508 0.169029 -0.071596
v 0.048882 0.003416 0.022779
v 0.034677 0.003416 0.021976
v 0.035967 0.005644 0.001349
v 0.044935 0.005644 -0.001940
v 0.060093 0.003416 0.014233
v 0.043830 0.014776 0.002409
v 0.038062 0.016971 0.003441
v 0.039138 0.053822 -0.002443
v 0.046400 0.053871 -0.001304
v 0.037681 0.017205 0.012145
v 0.038837 0.054295 0.006924
v 0.046164 0.016898 0.011197
v 0.047044 0.054282 0.007437
v 0.046400 0.053871 -0.001304
v 0.043830 0.014776 0.002409
v 0.043830 0.014776 0.002409
v 0.038062 0.016971 0.003441
v 0.044935 0.005644 -0.001940
v 0.048882 0.003416 0.022779
v 0.062822 0.008568 0.022285
v 0.046164 0.016898 0.011197
v 0.060093 0.003416 0.014233
v 0.041062 0.009691 0.030932
v 0.034677 0.003416 0.021976
v 0.029584 0.009814 0.016371
v 0.035967 0.005644 0.001349
v 0.020459 0.191403 -0.070565
v 0.026508 0.169029 -0.071596
v 0.013894 0.139165 -0.083435
v -0.000001 0.135163 -0.086863
v 0.026508 0.169029 -0.071596
v 0.013894 0.139165 -0.083435
v -0.000001 0.135163 -0.086863
v 0.037681 0.017205 0.012145
v -0.000002 0.217912 0.041641
v 0.039494 0.221227 0.077489
v -0.000001 0.202358 0.009990
v 0.043177 0.209835 0.094019
v 0.039494 0.221227 0.077489
v 0.043177 0.209835 0.094019
v 0.039494 0.221227 0.077489
v 0.037661 0.226125 0.076111
v 0.041215 0.219007 0.086494
v 0.043177 0.209835 0.094019
v 0.058644 0.190409 0.041803
v 0.070075 0.174902 0.030067
v 0.026269 0.169029 -0.071596
v 0.020221 0.191403 -0.070565
v 0.013656 0.139165 -0.083434
v -0.000001 0.135163 -0.086863
v 0.026269 0.169029 -0.071596
v -0.014752 0.280823 0.117115
v -0.013359 0.264496 0.110188
v -0.012109 0.277511 0.083882
v -0.000001 0.288164 0.080708
v -0.014752 0.280823 0.117115
v -0.000000 0.273064 0.124553
v -0.007577 0.259851 0.116542
v -0.000002 0.257670 0.120218
v -0.021382 0.240099 0.087546
v -0.019526 0.217909 0.108445
v -0.013989 0.249240 0.070429
v -0.012910 0.214123 0.119319
v -0.000002 0.212341 0.125251
v -0.000002 0.254170 0.065421
v -0.037666 0.226125 0.076111
v -0.041219 0.219007 0.086494
v -0.000002 0.158334 0.125440
v -0.032640 0.160786 0.113816
v -0.051132 0.162263 0.094675
v -0.043181 0.209835 0.094019
v -0.039499 0.221227 0.077490
v -0.073153 0.139171 0.060215
v -0.040301 0.126391 0.089588
v -0.000002 0.115953 0.101913
v -0.041029 0.108204 0.063422
v -0.000002 0.096919 0.068969
v -0.000003 0.074282 0.024572
v -0.000003 0.067208 -0.002554
v -0.013895 0.139165 -0.083435
v -0.000001 0.135163 -0.086863
v -0.000002 0.201021 -0.047436
v -0.036237 0.169598 -0.046003
v -0.068542 0.123959 0.033094
v -0.054782 0.131032 -0.041001
v -0.046407 0.053871 -0.001305
v -0.047051 0.054282 0.007436
v -0.039145 0.053822 -0.002444
v -0.038844 0.054295 0.006923
v -0.041029 0.108204 0.063422
v -0.039145 0.053822 -0.002444
v -0.026511 0.169029 -0.071596
v -0.020463 0.191403 -0.070565
v -0.013895 0.139165 -0.083435
v -0.026511 0.169029 -0.071596
v -0.035975 0.005644 0.001346
v -0.034685 0.003416 0.021974
v -0.048890 0.003416 0.022777
v -0.044943 0.005644 -0.001943
v -0.060101 0.003416 0.014230
v -0.043837 0.014776 0.002407
v -0.046407 0.053871 -0.001305
v -0.039145 0.053822 -0.002444
v -0.038070 0.016971 0.003439
v -0.038844 0.054295 0.006923
v -0.037689 0.017205 0.012143
v -0.047051 0.054282 0.007436
v -0.046171 0.016898 0.011194
v -0.046407 0.053871 -0.001305
v -0.043837 0.014776 0.002407
v -0.043837 0.014776 0.002407
v -0.038070 0.016971 0.003439
v -0.044943 0.005644 -0.001943
v -0.048890 0.003416 0.022777
v -0.046171 0.016898 0.011194
v -0.062830 0.008568 0.022283
v -0.060101 0.003416 0.014230
v -0.041070 0.009691 0.030930
v -0.034685 0.003416 0.021974
v -0.029592 0.009814 0.016369
v -0.035975 0.005644 0.001346
v -0.026511 0.169029 -0.071596
v -0.020463 0.191403 -0.070565
v -0.000001 0.135163 -0.086863
v -0.013895 0.139165 -0.083435
v -0.026511 0.169029 -0.071596
v -0.013895 0.139165 -0.083435
v -0.000001 0.135163 -0.086863
v -0.037689 0.017205 0.012143
v -0.039499 0.221227 0.077490
v -0.000001 0.202358 0.009990
v -0.043181 0.209835 0.094019
v -0.039499 0.221227 0.077490
v -0.043181 0.209835 0.094019
v -0.039499 0.221227 0.077490
v -0.037666 0.226125 0.076111
v -0.041219 0.219007 0.086494
v -0.043181 0.209835 0.094019
v -0.020225 0.191403 -0.070565
v -0.026272 0.169029 -0.071596
v -0.000001 0.135163 -0.086863
v -0.013657 0.139165 -0.083434
v -0.026272 0.169029 -0.071596
vn -0.7999 -0.1276 -0.5864
vn 0.3801 0.6655 0.6424
vn 0.3247 0.6599 0.6775
vn 0.5036 0.6788 0.5344
vn 0.5042 0.7133 0.4867
vn 0.4641 0.7223 0.5127
vn 0.5036 0.6789 0.5344
vn 0.5666 0.6952 0.4424
vn 0.5112 0.7858 0.3481
vn 0.4022 0.9127 0.0722
vn 0.4933 0.7595 0.4240
vn 0.9038 0.3626 -0.2273
vn -0.6596 0.5432 -0.5195
vn -0.2141 0.8154 -0.5378
vn -0.0031 0.7771 -0.6294
vn -0.3806 0.9225 0.0644
vn -0.3534 0.8252 0.4406
vn 0.9437 0.3040 -0.1304
vn 0.1267 0.7268 -0.6751
vn 0.8057 0.4324 -0.4048
vn 0.4282 0.8939 -0.1326
vn -0.5885 0.4776 0.6523
vn -0.5583 0.4575 0.6921
vn 0.4579 0.6092 0.6475
vn 0.7641 0.4724 -0.4394
vn -0.7192 0.6865 0.1073
vn 0.3797 0.9088 0.1733
vn -0.2364 0.9333 0.2704
vn 0.0100 0.8395 0.5433
vn 0.7675 0.6235 0.1490
vn 0.5111 0.7858 0.3482
vn -0.3474 0.7809 0.5191
vn 0.2739 0.6943 0.6656
vn -0.5034 0.7908 -0.3482
vn 0.1538 0.5687 0.8081
vn -0.4931 0.8067 0.3257
vn -0.6578 0.4769 -0.5830
vn -0.4931 0.8067 0.3256
vn -0.6082 0.5405 -0.5814
vn -0.7348 0.3989 -0.5486
vn -0.7481 0.4194 -0.5143
vn 0.6586 0.4187 0.6253
vn 0.8116 0.2222 0.5402
vn 0.8440 0.2811 0.4568
vn 0.7997 0.4138 0.4350
vn 0.9937 -0.0681 0.0891
vn 0.9476 -0.3085 -0.0824
vn 0.9522 -0.2895 -0.0974
vn 0.9592 -0.2652 -0.0978
vn 0.9492 0.1256 0.2887
vn 0.7732 0.3449 0.5321
vn 0.3481 0.5932 0.7259
vn -0.1136 0.6203 0.7761
vn -0.5009 -0.7144 -0.4886
vn -0.5581 -0.6986 -0.4479
vn -0.4183 -0.6847 -0.5969
vn -0.4744 -0.6423 -0.6020
vn -0.3784 -0.6669 -0.6419
vn -0.2641 -0.7330 -0.6269
vn -0.1313 -0.9602 0.2466
vn -0.6319 -0.4463 -0.6337
vn -0.3498 -0.5937 -0.7247
vn -0.7713 -0.3468 -0.5338
vn -0.8462 -0.2856 -0.4498
vn -0.9491 -0.1257 -0.2887
vn -0.9937 0.0681 -0.0891
vn -0.9592 0.2652 0.0978
vn -0.9522 0.2895 0.0974
vn -0.9476 0.3085 0.0824
vn -0.8462 -0.2857 -0.4498
vn -0.9937 0.0681 -0.0890
vn -0.7997 -0.4138 -0.4350
vn -0.8116 -0.2222 -0.5402
vn -0.5043 0.7133 0.4867
vn -0.5666 0.6952 0.4424
vn -0.4903 0.6940 0.5272
vn -0.3993 0.6794 0.6156
vn -0.3801 0.6655 0.6424
vn -0.3247 0.6599 0.6775
vn -0.4933 0.7595 0.4240
vn -0.4022 0.9127 0.0722
vn -0.3561 0.8192 0.4496
vn -0.7992 0.5068 -0.3232
vn 0.6596 0.5432 -0.5195
vn 0.0031 0.7771 -0.6294
vn 0.3806 0.9225 0.0644
vn 0.3534 0.8252 0.4406
vn -0.1267 0.7268 -0.6751
vn -0.9437 0.3040 -0.1304
vn -0.8057 0.4324 -0.4048
vn -0.2182 0.9730 0.0750
vn 0.5583 0.4575 0.6921
vn -0.4579 0.6092 0.6475
vn -0.7641 0.4724 -0.4394
vn 0.2364 0.9333 0.2704
vn -0.3797 0.9088 0.1733
vn 0.7192 0.6865 0.1073
vn -0.0100 0.8395 0.5433
vn -0.7675 0.6234 0.1490
vn 0.3474 0.7809 0.5191
vn -0.2608 0.6816 0.6837
vn 0.4672 0.8573 -0.2165
vn 0.4931 0.8068 0.3256
vn 0.6578 0.4769 -0.5830
vn 0.6082 0.5405 -0.5814
vn 0.7348 0.3989 -0.5486
vn 0.7481 0.4194 -0.5143
vn 0.3784 -0.6669 -0.6419
vn 0.2640 -0.7330 -0.6269
vn 0.4183 -0.6847 -0.5969
vn 0.4744 -0.6423 -0.6020
vn 0.5009 -0.7144 -0.4886
vn 0.5581 -0.6986 -0.4479
vn 0.5342 -0.7469 -0.3958
vn 0.0125 -0.1248 -0.9921
vn -0.1547 -0.1035 -0.9825
vn 0.5680 -0.0873 -0.8184
vn 0.9485 -0.0216 -0.3161
vn 0.7356 0.1021 0.6697
vn 0.6857 0.1223 0.7175
vn -0.8053 0.0376 0.5916
vn -0.7366 0.0505 0.6745
vn -0.9855 -0.0599 -0.1587
vn -0.9679 -0.0861 -0.2363
vn -0.3425 0.1839 -0.9213
vn -0.8703 0.4668 -0.1569
vn -0.3365 -0.1463 -0.9303
vn -0.3620 0.2074 -0.9088
vn -0.9874 0.1048 -0.1190
vn -0.3965 -0.6231 -0.6742
vn -0.9516 0.2065 -0.2274
vn -0.5679 -0.6104 -0.5522
vn -0.9404 0.1111 -0.3214
vn -0.6888 0.7084 0.1543
vn -0.7466 0.5954 0.2969
vn -0.7662 0.5286 0.3654
vn -0.7135 0.6459 0.2717
vn -0.8369 0.2939 0.4617
vn -0.8334 -0.4339 0.3424
vn -0.4487 -0.7214 0.5275
vn -0.8925 -0.2210 0.3932
vn -0.9971 -0.0689 -0.0326
vn -0.8589 0.5048 -0.0866
vn -0.7767 0.5650 -0.2784
vn -0.4222 0.8465 -0.3243
vn -0.4956 0.8560 -0.1475
vn -0.7134 0.6649 -0.2212
vn -0.9577 -0.2182 -0.1874
vn -0.9832 0.0032 -0.1823
vn -0.8154 -0.0215 -0.5785
vn -0.8117 0.1075 -0.5741
vn -0.4894 -0.4609 -0.7403
vn -0.3702 -0.6160 -0.6954
vn -0.1545 -0.8649 -0.4776
vn -0.5984 -0.3642 -0.7136
vn -0.6622 -0.1918 -0.7244
vn -0.3989 -0.4407 -0.8041
vn -0.4545 -0.5587 -0.6937
vn -0.2920 -0.7667 -0.5717
vn -0.1401 -0.9704 -0.1969
vn -0.2401 -0.8883 0.3915
vn -0.1504 -0.9130 0.3793
vn -0.2885 -0.8246 0.4866
vn -0.5153 -0.5831 0.6281
vn -0.8475 0.1418 0.5114
vn -0.7321 0.6524 -0.1960
vn -0.4707 0.6854 -0.5556
vn -0.5698 0.7410 -0.3554
vn -0.8879 0.2460 0.3888
vn -0.7547 0.2443 0.6089
vn -0.5556 0.1194 0.8229
vn -0.6752 0.0013 0.7377
vn -0.4174 0.0623 0.9066
vn -0.5341 -0.3915 0.7493
vn -0.4706 0.6854 -0.5557
vn -0.2529 -0.8974 0.3616
vn -0.3597 -0.5931 0.7204
vn -0.4824 -0.2188 0.8482
vn -0.3570 -0.1699 0.9185
vn -0.4117 0.0475 0.9101
vn 0.2872 -0.8722 -0.3960
vn 0.8143 -0.5563 -0.1656
vn 0.5125 -0.6142 -0.6001
vn 0.6277 -0.5675 -0.5329
vn -0.2952 -0.6199 -0.7271
vn -0.7284 -0.5373 -0.4251
vn -0.8941 -0.4414 -0.0761
vn -0.6994 -0.5668 0.4354
vn -0.7778 -0.4901 0.3935
vn -0.0885 -0.7014 0.7073
vn 0.3330 -0.7098 0.6207
vn 0.4303 -0.6900 0.5820
vn 0.7464 -0.6655 0.0096
vn 0.2529 -0.8974 0.3616
vn 0.4707 0.6854 -0.5555
vn 0.4222 0.8465 -0.3243
vn 0.4707 0.6854 -0.5556
vn 0.7321 0.6524 -0.1960
vn 0.5698 0.7410 -0.3554
vn 0.8879 0.2460 0.3888
vn 0.7547 0.2443 0.6089
vn 0.8475 0.1418 0.5114
vn 0.8589 0.5047 -0.0866
vn 0.7768 0.5649 -0.2784
vn 0.4956 0.8560 -0.1475
vn 0.9971 -0.0689 -0.0326
vn 0.9832 0.0031 -0.1823
vn 0.8925 -0.2210 0.3932
vn 0.5153 -0.5831 0.6281
vn 0.4824 -0.2188 0.8482
vn 0.5556 0.1194 0.8229
vn 0.6752 0.0013 0.7377
vn 0.9454 0.0628 0.3199
vn 0.9756 0.0212 0.2184
vn 0.9837 0.1635 -0.0746
vn 0.8851 0.4583 0.0806
vn 0.2885 -0.8246 0.4866
vn 0.4487 -0.7214 0.5275
vn 0.3597 -0.5931 0.7204
vn 0.3570 -0.1699 0.9185
vn 0.4116 0.0479 0.9101
vn 0.4174 0.0623 0.9066
vn 0.5341 -0.3916 0.7493
vn 0.8458 -0.0639 0.5297
vn 0.7991 -0.0404 0.5999
vn 0.8982 0.2534 0.3591
vn 0.9494 -0.1581 0.2715
vn 0.5850 -0.6919 0.4231
vn 0.7744 -0.6266 0.0883
vn 0.8514 0.2181 0.4770
vn 0.8754 0.3108 0.3703
vn 0.7912 0.4804 0.3784
vn 0.7971 0.4912 0.3511
vn 0.8595 0.4754 0.1877
vn 0.0725 -0.9401 0.3331
vn 0.2142 -0.9718 -0.0981
vn 0.7725 -0.3163 0.5506
vn 0.4816 0.3767 0.7913
vn 0.6171 0.5442 0.5683
vn 0.6358 0.6054 0.4789
vn 0.6573 0.3776 0.6522
vn 1.0000 -0.0000 -0.0000
vn -0.6358 0.6054 0.4789
vn -1.0000 -0.0000 -0.0000
vn -0.6573 0.3776 0.6522
vn -0.8754 0.3107 0.3703
vn -0.6171 0.5442 0.5683
vn -0.7912 0.4804 0.3784
vn -0.8681 0.3841 0.3144
vn -0.7487 0.5300 0.3982
vn -0.7971 0.4912 0.3511
vn -0.8903 0.3922 0.2314
vn -0.6893 0.7069 0.1588
vn -0.8595 0.4754 0.1877
vn -0.6507 0.7579 -0.0473
vn -0.8458 -0.0639 0.5297
vn -0.7991 -0.0404 0.5999
vn -0.5850 -0.6919 0.4231
vn -0.9494 -0.1581 0.2715
vn -0.7744 -0.6266 0.0883
vn -0.8514 0.2181 0.4770
vn -0.8982 0.2534 0.3591
vn -0.9756 0.0213 0.2184
vn -0.0725 -0.9401 0.3331
vn -0.2142 -0.9719 -0.0981
vn -0.7725 -0.3163 0.5506
vn -0.4816 0.3767 0.7913
vn 0.9468 0.3210 0.0224
vn 0.9928 -0.0860 0.0839
vn 0.9757 0.0478 -0.2137
vn 0.9520 0.0340 0.3043
vn 0.8920 0.1561 0.4242
vn 0.8051 0.5932 0.0022
vn 0.9031 0.3290 0.2759
vn 0.8314 0.3726 0.4122
vn 0.5459 0.7956 -0.2627
vn 0.4093 0.8004 -0.4381
vn 0.5010 0.7187 0.4821
vn 0.2290 0.6462 0.7280
vn 0.3854 0.9176 -0.0970
vn 0.1690 0.8922 -0.4188
vn -0.0929 0.9110 -0.4018
vn 0.4710 0.7873 -0.3978
vn 0.4859 0.8389 -0.2454
vn 0.7612 0.5509 -0.3422
vn 0.8411 0.1183 -0.5277
vn 0.7618 0.3459 -0.5478
vn 0.6023 0.6574 -0.4529
vn 0.5176 0.8395 -0.1656
vn -0.1894 0.1707 -0.9669
vn 0.0459 -0.9686 0.2443
vn 0.0354 -0.9814 0.1886
vn 0.0757 -0.9603 0.2685
vn 0.0248 -0.9987 -0.0440
vn -0.0226 -0.9995 -0.0201
vn -0.0211 -0.9965 -0.0811
vn -0.0702 -0.9943 -0.0798
vn -0.0688 -0.9950 -0.0721
vn -0.0738 -0.9961 -0.0487
vn -0.0000 -1.0000 -0.0000
vn 0.0010 -0.9984 -0.0565
vn -0.0000 -1.0000 -0.0001
vn 0.0026 -0.9980 -0.0636
vn 0.0228 -0.9957 -0.0897
vn 0.0405 -0.9951 -0.0906
vn 0.0440 -0.9971 -0.0622
vn -0.4303 -0.6900 0.5820
vn -0.7464 -0.6654 0.0096
vn -0.3330 -0.7098 0.6207
vn 0.0885 -0.7014 0.7073
vn 0.6994 -0.5668 0.4354
vn 0.7778 -0.4901 0.3935
vn 0.8941 -0.4414 -0.0761
vn 0.7284 -0.5374 -0.4251
vn 0.2951 -0.6199 -0.7271
vn -0.5125 -0.6142 -0.6001
vn -0.6277 -0.5674 -0.5329
vn -0.8143 -0.5563 -0.1656
vn 0.7999 -0.1276 -0.5864
vn 0.9516 0.2065 -0.2274
vn 0.9877 0.1551 0.0188
vn 0.3965 -0.6231 -0.6742
vn 0.3365 -0.1463 -0.9303
vn 0.8703 0.4668 -0.1569
vn 0.3425 0.1839 -0.9213
vn 0.3620 0.2074 -0.9088
vn 0.7134 0.6649 -0.2212
vn 0.8117 0.1075 -0.5741
vn 0.7135 0.6459 0.2716
vn 0.8101 0.4099 0.4192
vn 0.7466 0.5954 0.2969
vn 0.6888 0.7084 0.1543
vn 0.9404 0.1111 -0.3214
vn 0.5679 -0.6104 -0.5522
vn 0.9577 -0.2184 -0.1875
vn 0.4895 -0.4609 -0.7403
vn 0.8154 -0.0215 -0.5785
vn 0.3703 -0.6160 -0.6953
vn 0.5984 -0.3642 -0.7136
vn 0.2920 -0.7667 -0.5717
vn 0.4546 -0.5591 -0.6934
vn 0.3989 -0.4407 -0.8041
vn 0.6622 -0.1918 -0.7244
vn 0.1545 -0.8649 -0.4776
vn 0.1401 -0.9704 -0.1969
vn 0.2393 -0.8883 0.3919
vn 0.1503 -0.9130 0.3793
vn 0.8334 -0.4339 0.3424
vn -0.6586 0.4186 0.6253
vn -0.8440 0.2810 0.4567
vn -0.8116 0.2222 0.5402
vn -0.9937 -0.0681 0.0891
vn -0.7997 0.4138 0.4350
vn 0.1127 0.6203 0.7762
vn -0.3481 0.5932 0.7259
vn -0.7733 0.3449 0.5321
vn -0.9491 0.1256 0.2887
vn -0.9592 -0.2653 -0.0978
vn -0.9522 -0.2894 -0.0975
vn -0.9476 -0.3085 -0.0824
vn -0.9031 0.3290 0.2760
vn -0.2289 0.6462 0.7280
vn -0.5009 0.7188 0.4822
vn -0.8314 0.3726 0.4122
vn -0.3854 0.9176 -0.0970
vn -0.5459 0.7956 -0.2627
vn -0.1690 0.8922 -0.4188
vn -0.4093 0.8004 -0.4381
vn 0.0929 0.9110 -0.4018
vn -0.4710 0.7873 -0.3978
vn -0.8051 0.5932 0.0022
vn -0.4859 0.8389 -0.2454
vn -0.8920 0.1561 0.4242
vn -0.9468 0.3210 0.0224
vn -0.9520 0.0340 0.3043
vn -0.9928 -0.0860 0.0839
vn -0.9757 0.0478 -0.2137
vn -0.7612 0.5509 -0.3422
vn -0.8411 0.1183 -0.5278
vn -0.7618 0.3459 -0.5478
vn -0.6023 0.6574 -0.4529
vn -0.5176 0.8395 -0.1656
vn 0.1313 -0.9602 0.2466
vn 0.9669 -0.2136 -0.1393
vn 0.9286 -0.3091 -0.2052
vn 0.8675 -0.4941 0.0578
vn 0.7908 -0.5368 0.2940
vn 0.4848 -0.7660 0.4221
vn 0.6081 -0.7703 0.1917
vn 0.6491 -0.7238 0.2341
vn 0.8958 -0.4432 0.0333
vn 0.8485 -0.4860 0.2096
vn 0.7302 -0.6785 0.0802
vn 0.7750 -0.5846 0.2402
vn 0.8831 -0.3684 0.2905
vn 0.8761 -0.3063 0.3723
vn 0.8958 -0.4025 0.1884
vn 0.9636 -0.2598 0.0637
vn 0.9446 -0.2782 -0.1742
vn -0.8485 -0.4860 0.2096
vn -0.7302 -0.6785 0.0802
vn -0.7750 -0.5846 0.2402
vn -0.8831 -0.3684 0.2905
vn -0.8761 -0.3063 0.3723
vn -0.8958 -0.4025 0.1884
vn -0.9636 -0.2598 0.0637
vn -0.8958 -0.4432 0.0333
vn -0.9446 -0.2782 -0.1742
vn -0.9286 -0.3091 -0.2052
vn -0.8675 -0.4941 0.0578
vn -0.9670 -0.2132 -0.1395
vn -0.7908 -0.5367 0.2940
vn -0.4850 -0.7660 0.4220
vn -0.6082 -0.7703 0.1917
vn -0.6491 -0.7238 0.2340
vn 0.5370 0.5980 -0.5950
vn 0.6507 0.7579 -0.0473
vn 0.8747 0.3973 -0.2777
vn 0.5419 0.4132 -0.7318
vn 0.8439 0.2893 -0.4519
vn 0.4631 0.4260 -0.7772
vn 0.6823 0.4802 -0.5512
vn 0.4930 0.6836 -0.5382
vn 0.2089 0.8111 -0.5463
vn 0.5366 0.8123 -0.2286
vn 0.6210 0.5823 0.5247
vn 0.8681 0.3841 0.3144
vn 0.7487 0.5300 0.3982
vn 0.8903 0.3922 0.2314
vn 0.6893 0.7069 0.1588
vn -0.2873 -0.8721 -0.3960
vn -0.8747 0.3973 -0.2777
vn -0.5370 0.5980 -0.5950
vn -0.5419 0.4132 -0.7318
vn -0.8439 0.2894 -0.4519
vn -0.4631 0.4261 -0.7772
vn -0.6823 0.4802 -0.5512
vn -0.4929 0.6837 -0.5382
vn -0.2089 0.8111 -0.5463
vn -0.9837 0.1636 -0.0746
vn -0.8851 0.4583 0.0806
vn -0.5366 0.8123 -0.2285
vn -0.6210 0.5823 0.5247
vn -0.9454 0.0629 0.3199
vn 0.9581 -0.0146 0.2862
vn 0.9679 -0.0861 -0.2363
vn 0.9855 -0.0600 -0.1588
vn 0.7366 0.0505 0.6745
vn -0.9246 0.0638 0.3757
vn 0.1149 0.1349 0.9842
vn -0.6857 0.1224 0.7175
vn -0.9485 -0.0216 -0.3161
vn -0.5681 -0.0872 -0.8183
vn -0.0125 -0.1248 -0.9921
vn 0.1547 -0.1035 -0.9825
vn 0.9937 0.0681 -0.0891
vn 0.9476 0.3085 0.0824
vn 0.9522 0.2895 0.0974
vn 0.9592 0.2652 0.0978
vn 0.9492 -0.1256 -0.2887
vn 0.8440 -0.2810 -0.4567
vn 0.7713 -0.3468 -0.5338
vn 0.6592 -0.4188 -0.6246
vn 0.3498 -0.5937 -0.7247
vn 0.7997 -0.4138 -0.4350
vn 0.8116 -0.2222 -0.5402
vn -0.0440 -0.9971 -0.0622
vn -0.0405 -0.9951 -0.0906
vn -0.0228 -0.9957 -0.0897
vn -0.0248 -0.9987 -0.0440
vn 0.0211 -0.9965 -0.0811
vn -0.0026 -0.9980 -0.0636
vn -0.0010 -0.9984 -0.0565
vn -0.0459 -0.9686 0.2443
vn -0.0757 -0.9603 0.2685
vn -0.0354 -0.9814 0.1887
vn 0.0226 -0.9995 -0.0201
vn 0.0703 -0.9943 -0.0797
vn 0.0688 -0.9950 -0.0721
vn 0.0738 -0.9961 -0.0487
vn 0.1894 0.1707 -0.9669
vn -0.5343 -0.7470 -0.3958
vt 0.092957 0.597412
vt 0.074158 0.593018
vt 0.042908 0.646973
vt 0.987793 0.577637
vt 0.990723 0.317383
vt 0.897461 0.395996
vt 0.913574 0.587891
vt 0.951172 0.696045
vt 0.909668 0.716797
vt 0.819824 0.143555
vt 0.832520 0.179688
vt 0.867676 0.180176
vt 0.878906 0.202637
vt 0.894531 0.204102
vt 0.891602 0.254395
vt 0.946777 0.139648
vt 0.894531 0.177734
vt 0.880371 0.264160
vt 0.896484 0.280273
vt 0.861328 0.230957
vt 0.742188 0.177734
vt 0.737793 0.166016
vt 0.723633 0.183105
vt 0.740234 0.191406
vt 0.846680 0.024414
vt 0.832520 0.036621
vt 0.857422 0.118652
vt 0.819824 0.006348
vt 0.813477 0.035156
vt 0.902344 0.123047
vt 0.973633 0.091309
vt 0.982422 0.104492
vt 0.995605 0.086914
vt 0.992676 0.112305
vt 0.956055 0.170410
vt 0.916992 0.226562
vt 0.909180 0.260254
vt 0.649414 0.818359
vt 0.591797 0.880188
vt 0.674316 0.881165
vt 0.584961 0.906738
vt 0.633301 0.930176
vt 0.538574 0.945160
vt 0.645996 0.989647
vt 0.896973 0.990639
vt 0.954590 0.917053
vt 0.993652 0.787354
vt 0.985352 0.729004
vt 0.939453 0.738770
vt 0.951172 0.695801
vt 0.910156 0.716797
vt 0.913086 0.588623
vt 0.987793 0.577393
vt 0.990723 0.318359
vt 0.897949 0.395996
vt 0.400146 0.980301
vt 0.406982 0.932922
vt 0.534668 0.929565
vt 0.649414 0.819092
vt 0.982910 0.728516
vt 0.994629 0.786621
vt 0.674316 0.881104
vt 0.955566 0.918213
vt 0.634277 0.929749
vt 0.896973 0.989784
vt 0.645508 0.990372
vt 0.538086 0.945465
vt 0.585449 0.907104
vt 0.591797 0.881287
vt 0.313965 0.957886
vt 0.010155 0.015137
vt 0.007561 0.164062
vt 0.035431 0.163086
vt 0.032745 0.021973
vt 0.070679 0.158203
vt 0.065308 0.016602
vt 0.097717 0.015625
vt 0.101624 0.157715
vt 0.134644 0.158691
vt 0.132690 0.009766
vt 0.670410 0.291992
vt 0.708008 0.371582
vt 0.792969 0.362305
vt 0.683594 0.203613
vt 0.751465 0.466309
vt 0.829102 0.447754
vt 0.824707 0.609863
vt 0.867676 0.594971
vt 0.900879 0.691895
vt 0.804688 0.658447
vt 0.707520 0.607178
vt 0.650391 0.501953
vt 0.636719 0.449219
vt 0.352295 0.132324
vt 0.266113 0.167969
vt 0.301758 0.262695
vt 0.353027 0.210938
vt 0.378418 0.333984
vt 0.470459 0.299316
vt 0.473145 0.482910
vt 0.532715 0.449219
vt 0.590332 0.309082
vt 0.434326 0.111328
vt 0.450684 0.187012
vt 0.535645 0.208984
vt 0.663574 0.292969
vt 0.486816 0.103027
vt 0.569336 0.115723
vt 0.460693 0.062988
vt 0.626465 0.171387
vt 0.710938 0.166504
vt 0.671387 0.099609
vt 0.596680 0.039062
vt 0.426758 0.006836
vt 0.378174 0.059082
vt 0.336670 0.020996
vt 0.204834 0.091797
vt 0.216064 0.224609
vt 0.223267 0.323730
vt 0.354248 0.382812
vt 0.388916 0.537109
vt 0.256592 0.440918
vt 0.239014 0.433105
vt 0.161987 0.484375
vt 0.126953 0.471191
vt 0.120972 0.598145
vt 0.098206 0.589355
vt 0.089966 0.633545
vt 0.332764 0.444824
vt 0.124329 0.179199
vt 0.166870 0.323730
vt 0.087952 0.314453
vt 0.091553 0.464355
vt 0.314697 0.942261
vt 0.247681 0.868774
vt 0.219116 0.893188
vt 0.244263 0.954010
vt 0.164551 0.996578
vt 0.205688 0.888428
vt 0.115234 0.945404
vt 0.194580 0.867676
vt 0.070312 0.853760
vt 0.012581 0.755981
vt 0.204224 0.851440
vt 0.176025 0.776733
vt 0.223145 0.859253
vt 0.146362 0.615967
vt 0.129150 0.660645
vt 0.186279 0.633301
vt 0.220581 0.558105
vt 0.102905 0.679199
vt 0.102173 0.663330
vt 0.091187 0.707031
vt 0.078979 0.687988
vt 0.073914 0.677734
vt 0.035522 0.686523
vt 0.031738 0.700684
vt 0.061096 0.707764
vt 0.077942 0.725830
vt 0.099670 0.740234
vt 0.126709 0.722900
vt 0.068420 0.672363
vt 0.031616 0.679199
vt 0.007397 0.682373
vt 0.026474 0.708984
vt 0.048615 0.719971
vt 0.059235 0.722900
vt 0.065979 0.737793
vt 0.058746 0.736816
vt 0.072449 0.750854
vt 0.089172 0.744141
vt 0.099915 0.764404
vt 0.121460 0.755249
vt 0.167358 0.760620
vt 0.435303 0.736816
vt 0.372559 0.595703
vt 0.497803 0.529297
vt 0.297852 0.668457
vt 0.231567 0.807373
vt 0.401611 0.813354
vt 0.313721 0.942810
vt 0.358643 0.945831
vt 0.408203 0.933472
vt 0.482422 0.930542
vt 0.354004 0.970566
vt 0.315430 0.957184
vt 0.399658 0.980453
vt 0.487793 0.953613
vt 0.532715 0.929382
vt 0.552246 0.883057
vt 0.589355 0.840820
vt 0.556152 0.662354
vt 0.634766 0.527344
vt 0.682617 0.604248
vt 0.697266 0.678467
vt 0.681641 0.734863
vt 0.689453 0.203613
vt 0.867676 0.407715
vt 0.874023 0.421875
vt 0.879883 0.406738
vt 0.862305 0.381348
vt 0.882324 0.383301
vt 0.877930 0.331543
vt 0.904785 0.343262
vt 0.922363 0.294922
vt 0.933105 0.304688
vt 0.938477 0.287598
vt 0.854980 0.255859
vt 0.840332 0.239258
vt 0.833984 0.261719
vt 0.849609 0.340332
vt 0.788086 0.321289
vt 0.798340 0.309570
vt 0.781738 0.305664
vt 0.230835 0.807739
vt 0.401611 0.812134
vt 0.551758 0.883301
vt 0.589844 0.840942
vt 0.436035 0.736328
vt 0.557617 0.658203
vt 0.683105 0.734619
vt 0.697266 0.676758
vt 0.682129 0.603027
vt 0.635742 0.526855
vt 0.497559 0.530273
vt 0.372559 0.596191
vt 0.298340 0.667969
vt 0.203247 0.749756
vt 0.183960 0.726074
vt 0.247559 0.711914
vt 0.227905 0.668945
vt 0.319092 0.635254
vt 0.277832 0.604980
vt 0.313477 0.475586
vt 0.257324 0.491211
vt 0.249756 0.466797
s 1
f 311/1/1 23/2/1 24/3/1
f 302/4/2 495/5/3 303/6/2
f 303/6/2 304/7/4 302/4/2
f 305/8/5 302/4/6 304/7/6
f 304/7/7 306/9/8 305/8/5
f 471/10/9 472/11/10 481/12/11
f 464/13/12 481/12/11 472/11/10
f 463/14/13 464/13/14 202/15/15
f 468/16/16 467/17/17 463/14/13
f 202/15/15 227/18/18 228/19/19
f 227/18/18 202/15/15 464/13/12
f 464/13/12 473/20/20 227/18/18
f 472/11/10 473/20/20 464/13/12
f 473/20/20 472/11/10 217/21/21
f 217/21/21 472/11/10 471/10/9
f 471/10/22 216/22/23 217/21/22
f 217/21/21 216/22/23 225/23/24
f 220/24/25 217/21/21 225/23/24
f 217/21/21 220/24/25 473/20/20
f 206/25/26 207/26/27 470/27/28
f 207/26/27 206/25/26 223/28/29
f 210/29/30 207/26/27 223/28/29
f 207/26/27 210/29/30 471/10/31
f 471/10/9 470/27/28 207/26/27
f 481/12/11 470/27/28 471/10/9
f 470/27/28 481/12/11 467/17/17
f 467/17/17 466/30/32 470/27/28
f 466/30/32 467/17/17 468/16/16
f 212/31/33 466/30/32 468/16/16
f 470/27/28 466/30/32 206/25/26
f 468/16/16 211/32/34 212/31/33
f 212/31/35 211/32/35 221/33/36
f 211/32/34 213/34/37 221/33/38
f 469/35/39 213/34/37 211/32/34
f 211/32/34 468/16/16 469/35/39
f 465/36/40 469/35/39 468/16/16
f 468/16/16 463/14/13 465/36/40
f 205/37/41 465/36/40 463/14/13
f 463/14/13 202/15/15 205/37/41
f 205/37/41 202/15/15 228/19/19
f 297/38/42 301/39/43 298/40/44
f 298/40/44 300/41/45 294/42/46
f 294/42/46 299/43/47 295/44/48
f 294/42/46 295/44/48 491/45/49
f 491/45/49 492/46/50 294/42/46
f 298/40/44 294/42/46 492/46/50
f 492/46/50 494/47/51 298/40/44
f 494/47/51 297/38/42 298/40/44
f 494/47/51 493/48/52 297/38/42
f 493/48/52 296/49/53 297/38/42
f 248/50/54 249/51/55 246/52/56
f 246/52/56 245/53/57 248/50/54
f 478/54/58 245/53/57 246/52/56
f 246/52/56 247/55/59 478/54/58
f 487/56/60 257/57/60 258/58/60
f 240/59/61 476/60/62 477/61/63
f 477/61/63 241/62/64 240/59/61
f 241/62/64 477/61/63 474/63/65
f 474/63/65 238/64/66 241/62/64
f 238/64/66 474/63/65 475/65/67
f 475/65/67 239/66/68 238/64/66
f 238/64/66 239/66/68 242/67/69
f 241/62/70 238/64/71 243/68/72
f 240/59/73 241/62/73 244/69/73
f 151/8/74 152/9/75 149/7/76
f 149/7/76 148/4/77 151/8/74
f 148/4/77 149/7/76 150/6/78
f 150/6/78 403/5/79 148/4/77
f 386/12/80 377/11/81 376/10/82
f 377/11/81 386/12/80 369/13/83
f 368/14/84 50/15/85 369/13/83
f 372/16/86 368/14/84 373/17/87
f 50/15/85 75/19/88 76/18/89
f 369/13/83 50/15/85 76/18/89
f 76/18/89 378/20/90 369/13/83
f 369/13/83 378/20/90 377/11/81
f 64/21/91 377/11/81 378/20/90
f 376/10/82 377/11/81 64/21/91
f 64/21/91 65/22/92 376/10/82
f 64/21/91 73/23/93 65/22/92
f 68/24/94 73/23/93 64/21/91
f 378/20/90 68/24/94 64/21/91
f 375/27/95 55/26/96 54/25/97
f 55/26/96 71/28/98 54/25/97
f 58/29/99 71/28/98 55/26/96
f 376/10/82 58/29/99 55/26/96
f 55/26/96 375/27/95 376/10/82
f 376/10/82 375/27/95 386/12/80
f 373/17/87 386/12/80 375/27/95
f 375/27/95 371/30/100 373/17/87
f 371/30/100 372/16/86 373/17/87
f 372/16/86 371/30/100 59/31/101
f 54/25/97 371/30/100 375/27/95
f 59/31/101 60/32/102 372/16/86
f 59/31/101 69/33/103 60/32/102
f 60/32/102 69/33/103 61/34/104
f 60/32/102 61/34/104 374/35/105
f 374/35/105 372/16/86 60/32/102
f 372/16/86 374/35/105 370/36/106
f 370/36/106 368/14/84 372/16/86
f 368/14/84 370/36/106 53/37/107
f 53/37/107 50/15/85 368/14/84
f 53/37/107 75/19/88 50/15/85
f 383/54/108 93/55/109 94/52/110
f 94/52/110 95/53/111 383/54/108
f 96/50/112 95/53/111 94/52/110
f 94/52/110 97/51/113 96/50/112
f 256/57/114 485/56/114 486/70/114
f 453/71/115 454/72/116 455/73/117
f 455/73/117 456/74/118 453/71/115
f 456/74/118 455/73/117 457/75/119
f 457/75/119 458/76/120 456/74/118
f 460/77/121 458/76/120 457/75/119
f 457/75/119 459/78/122 460/77/121
f 460/77/121 459/78/122 461/79/123
f 461/79/123 462/80/124 460/77/121
f 444/81/125 445/82/126 201/83/127
f 201/83/127 446/84/128 444/81/125
f 201/83/127 445/82/126 230/85/129
f 230/85/129 231/86/130 201/83/127
f 231/86/130 230/85/129 233/87/131
f 233/87/131 235/88/132 231/86/130
f 233/87/131 234/89/133 235/88/132
f 236/90/134 234/89/133 233/87/131
f 237/91/135 236/90/134 233/87/131
f 233/87/131 230/85/129 237/91/135
f 230/85/129 232/92/136 237/91/135
f 434/93/137 232/92/138 230/85/138
f 193/94/139 428/95/140 425/96/141
f 425/96/141 436/97/142 193/94/139
f 182/98/143 436/97/142 425/96/141
f 436/97/142 182/98/143 190/99/144
f 190/99/144 182/98/143 483/100/145
f 483/100/145 189/101/146 190/99/144
f 435/102/147 190/99/144 189/101/146
f 189/101/146 434/93/137 435/102/147
f 435/102/147 434/93/137 445/82/126
f 230/85/129 445/82/126 434/93/137
f 192/103/148 193/94/139 436/97/142
f 436/97/142 191/104/149 192/103/148
f 190/99/144 191/104/149 436/97/142
f 437/105/150 191/104/149 190/99/144
f 190/99/144 435/102/147 437/105/150
f 437/105/150 435/102/147 447/106/151
f 445/82/126 447/106/151 435/102/147
f 192/103/148 191/104/149 437/105/150
f 437/105/150 194/107/152 192/103/148
f 186/108/153 184/109/154 194/107/152
f 194/107/152 437/105/150 186/108/153
f 437/105/150 187/110/155 186/108/153
f 447/106/151 187/110/155 437/105/150
f 432/84/156 187/110/155 447/106/151
f 187/110/155 432/84/156 433/111/157
f 433/111/157 188/112/158 187/110/155
f 187/110/155 188/112/158 185/113/159
f 185/113/159 186/108/153 187/110/155
f 184/109/154 186/108/153 185/113/159
f 185/113/159 431/114/160 184/109/154
f 183/115/161 184/109/154 431/114/160
f 431/114/160 430/116/162 183/115/161
f 183/115/161 430/116/162 429/117/163
f 429/117/163 428/95/140 183/115/161
f 426/118/164 428/95/140 429/117/163
f 425/96/141 428/95/140 426/118/164
f 426/118/164 422/119/165 425/96/141
f 182/98/143 425/96/141 422/119/165
f 422/119/165 181/120/166 182/98/143
f 483/100/145 182/98/143 181/120/166
f 181/120/166 387/121/167 483/100/145
f 387/121/167 181/120/166 424/122/168
f 423/123/169 424/122/168 181/120/166
f 181/120/166 422/119/165 423/123/169
f 423/123/169 422/119/165 413/124/170
f 415/125/171 413/124/170 422/119/165
f 413/124/170 415/125/171 410/126/172
f 411/127/173 410/126/172 415/125/171
f 409/128/174 410/126/172 411/127/173
f 387/121/175 99/129/176 388/122/176
f 429/117/163 427/130/177 426/118/164
f 421/131/178 426/118/164 427/130/177
f 422/119/165 426/118/164 421/131/178
f 422/119/165 421/131/178 415/125/171
f 415/125/171 421/131/178 420/132/179
f 420/132/179 416/133/180 415/125/171
f 415/125/171 416/133/180 411/127/173
f 427/130/177 420/132/179 421/131/178
f 484/70/181 254/134/181 255/57/181
f 199/135/182 440/136/183 200/137/184
f 197/138/185 200/137/184 440/136/183
f 197/138/185 440/136/183 438/139/186
f 438/139/186 195/140/187 197/138/185
f 195/140/187 438/139/186 439/141/188
f 439/141/188 196/142/189 195/140/187
f 442/143/190 196/142/189 439/141/188
f 439/141/188 441/144/191 442/143/190
f 198/145/192 442/143/190 441/144/191
f 441/144/191 443/146/193 198/145/192
f 482/122/194 251/129/194 326/121/195
f 389/100/196 326/121/197 30/120/198
f 328/122/199 30/120/198 326/121/197
f 30/120/198 328/122/199 327/123/200
f 316/124/201 325/119/202 327/123/200
f 327/123/200 325/119/202 30/120/198
f 31/98/203 30/120/198 325/119/202
f 30/120/198 31/98/203 389/100/196
f 389/100/196 31/98/203 39/99/204
f 39/99/204 38/101/205 389/100/196
f 340/97/206 341/104/207 39/99/204
f 39/99/204 31/98/203 340/97/206
f 31/98/203 329/96/208 340/97/206
f 325/119/202 329/96/208 31/98/203
f 329/96/208 325/119/202 331/118/209
f 325/119/202 324/131/210 331/118/209
f 318/125/211 324/131/210 325/119/202
f 325/119/202 316/124/201 318/125/211
f 314/126/212 318/125/211 316/124/201
f 316/124/201 308/147/213 314/126/212
f 314/126/212 308/147/213 307/148/214
f 307/148/214 308/147/213 20/149/215
f 315/150/216 20/149/215 308/147/213
f 308/147/213 316/124/201 315/150/216
f 332/117/217 333/95/218 331/118/209
f 331/118/209 330/130/219 332/117/217
f 330/130/219 331/118/209 324/131/210
f 324/131/210 323/132/220 330/130/219
f 323/132/220 324/131/210 318/125/211
f 318/125/211 319/133/221 323/132/220
f 313/127/222 319/133/221 318/125/211
f 318/125/211 314/126/212 313/127/222
f 312/128/223 313/127/222 314/126/212
f 307/148/214 312/128/223 314/126/212
f 12/151/224 22/152/225 307/148/214
f 11/153/226 12/151/224 307/148/214
f 5/154/227 12/151/224 11/153/226
f 12/151/224 17/155/228 22/152/225
f 5/154/227 17/155/228 12/151/224
f 17/155/228 5/154/227 6/156/229
f 3/157/230 6/156/229 5/154/227
f 5/154/227 4/158/231 3/157/230
f 4/158/231 5/154/227 11/153/226
f 11/153/226 19/159/232 4/158/231
f 11/153/226 10/160/233 19/159/232
f 10/160/233 11/153/226 8/161/234
f 307/148/214 8/161/234 11/153/226
f 307/148/214 17/155/228 312/128/223
f 17/155/228 16/162/235 312/128/223
f 15/163/236 16/162/235 17/155/228
f 17/155/228 6/156/229 15/163/236
f 6/156/229 7/164/237 15/163/236
f 6/156/229 3/157/230 7/164/237
f 3/157/230 2/165/238 7/164/237
f 1/166/239 2/165/238 3/157/230
f 3/157/230 4/158/231 1/166/239
f 18/167/240 1/166/239 4/158/231
f 25/168/241 26/169/242 18/167/240
f 170/167/243 26/169/244 177/168/245
f 154/158/246 153/166/247 170/167/243
f 170/167/243 171/159/248 154/158/246
f 177/168/245 171/159/248 170/167/243
f 177/168/245 180/170/249 171/159/248
f 171/159/248 180/170/249 178/171/250
f 171/159/248 178/171/250 162/160/251
f 178/171/250 179/172/252 162/160/251
f 162/160/251 179/172/252 163/173/253
f 162/160/251 163/173/253 160/161/254
f 160/161/254 163/173/253 166/174/255
f 164/151/256 174/152/257 168/155/258
f 157/154/259 164/151/256 168/155/258
f 168/155/258 158/156/260 157/154/259
f 157/154/259 158/156/260 155/157/261
f 155/157/261 154/158/246 157/154/259
f 161/153/262 157/154/259 154/158/246
f 154/158/246 171/159/248 161/153/262
f 161/153/262 171/159/248 162/160/251
f 160/161/254 161/153/262 162/160/251
f 161/153/262 160/161/254 404/148/263
f 157/154/259 161/153/262 164/151/256
f 404/148/263 164/151/256 161/153/262
f 164/151/256 404/148/263 174/152/257
f 410/126/172 409/128/174 404/148/263
f 404/148/263 409/128/174 168/155/258
f 168/155/258 409/128/174 169/162/264
f 168/155/258 169/162/264 167/163/265
f 167/163/265 158/156/260 168/155/258
f 158/156/260 167/163/265 159/164/266
f 158/156/260 159/164/266 155/157/261
f 155/157/261 159/164/266 156/165/267
f 155/157/261 156/165/267 153/166/247
f 153/166/247 154/158/246 155/157/261
f 116/175/268 117/176/269 124/177/270
f 116/175/268 115/178/271 117/176/269
f 113/179/272 115/178/271 116/175/268
f 116/175/268 114/180/273 113/179/272
f 112/181/274 113/179/272 111/182/275
f 111/182/275 113/179/272 114/180/273
f 114/180/273 110/183/276 111/182/275
f 109/184/277 110/183/276 114/180/273
f 395/185/278 396/186/279 112/181/274
f 112/181/274 111/182/275 395/185/278
f 394/187/280 395/185/278 111/182/275
f 111/182/275 110/183/276 394/187/280
f 108/188/281 394/187/280 110/183/276
f 110/183/276 109/184/277 108/188/281
f 107/189/282 108/188/281 109/184/277
f 109/184/277 118/190/283 107/189/282
f 114/180/273 118/190/283 109/184/277
f 119/191/284 118/190/283 114/180/273
f 114/180/273 116/175/268 119/191/284
f 119/191/284 116/175/268 120/192/285
f 124/177/270 120/192/285 116/175/268
f 120/192/285 124/177/270 125/193/286
f 125/193/286 122/194/287 120/192/285
f 120/192/285 122/194/287 123/195/288
f 123/195/288 121/196/289 120/192/285
f 120/192/285 121/196/289 119/191/284
f 479/197/290 250/83/290 480/111/290
f 51/198/291 77/199/292 52/200/293
f 355/201/294 51/198/291 52/200/293
f 52/200/293 356/202/295 355/201/294
f 353/203/296 355/201/294 356/202/295
f 357/204/297 353/203/296 356/202/295
f 62/205/298 353/203/296 357/204/297
f 357/204/297 63/206/299 62/205/298
f 63/206/299 70/207/300 62/205/298
f 57/208/301 72/209/302 56/210/303
f 353/203/296 57/208/301 56/210/303
f 56/210/303 354/211/304 353/203/296
f 353/203/296 354/211/304 355/201/294
f 66/212/305 355/201/294 354/211/304
f 354/211/304 67/213/306 66/212/305
f 67/213/306 74/214/300 66/212/305
f 46/145/307 348/146/308 347/144/309
f 347/144/309 346/143/310 46/145/307
f 346/143/310 347/144/309 343/141/311
f 343/141/311 44/142/312 346/143/310
f 43/140/313 44/142/312 343/141/311
f 343/141/311 344/139/314 43/140/313
f 45/138/315 43/140/313 344/139/314
f 344/139/314 345/136/316 45/138/315
f 45/138/315 345/136/316 48/137/317
f 47/135/318 48/137/317 345/136/316
f 408/1/319 175/3/319 176/2/319
f 81/87/320 79/85/321 78/86/322
f 49/83/323 78/86/322 79/85/321
f 79/85/321 351/82/324 49/83/323
f 49/83/323 351/82/324 349/81/325
f 349/81/325 350/84/326 49/83/323
f 338/102/327 352/106/328 351/82/324
f 351/82/324 339/93/329 338/102/327
f 339/93/329 351/82/324 79/85/321
f 79/85/321 80/92/330 339/93/329
f 79/85/321 85/91/331 80/92/330
f 85/91/331 79/85/321 81/87/320
f 81/87/320 84/90/332 85/91/331
f 84/90/332 81/87/320 83/89/333
f 81/87/320 82/88/334 83/89/333
f 78/86/322 82/88/334 81/87/320
f 40/103/335 42/107/336 342/105/337
f 35/108/338 342/105/337 42/107/336
f 342/105/337 35/108/338 36/110/339
f 36/110/339 35/108/338 34/113/340
f 34/113/340 37/112/341 36/110/339
f 36/110/339 37/112/341 336/111/342
f 336/111/342 337/84/343 36/110/339
f 337/84/343 352/106/328 36/110/339
f 342/105/337 36/110/339 352/106/328
f 352/106/328 338/102/327 342/105/337
f 42/107/336 33/109/344 35/108/338
f 34/113/340 35/108/338 33/109/344
f 33/109/344 335/114/345 34/113/340
f 335/114/345 33/109/344 32/115/346
f 32/115/346 334/116/347 335/114/345
f 332/117/217 334/116/347 32/115/346
f 32/115/346 333/95/218 332/117/217
f 338/102/327 339/93/329 38/101/205
f 38/101/205 39/99/204 338/102/327
f 342/105/337 338/102/327 39/99/204
f 39/99/204 341/104/207 342/105/337
f 342/105/337 341/104/207 40/103/335
f 40/103/335 341/104/207 340/97/206
f 340/97/206 41/94/348 40/103/335
f 41/94/348 340/97/206 329/96/208
f 329/96/208 333/95/218 41/94/348
f 331/118/209 333/95/218 329/96/208
f 143/38/349 142/40/350 147/39/351
f 142/40/350 140/42/352 146/41/353
f 143/38/349 144/49/354 402/48/355
f 401/47/356 143/38/349 402/48/355
f 401/47/356 142/40/350 143/38/349
f 142/40/350 401/47/356 399/46/357
f 399/46/357 140/42/352 142/40/350
f 140/42/352 399/46/357 400/45/358
f 400/45/358 141/44/359 140/42/352
f 140/42/352 141/44/359 145/43/360
f 264/181/361 490/186/362 489/185/363
f 489/185/363 263/182/364 264/181/361
f 263/182/364 489/185/363 488/187/365
f 488/187/365 262/183/366 263/182/364
f 262/183/366 488/187/365 261/188/367
f 261/188/367 260/184/368 262/183/366
f 259/189/369 260/184/368 261/188/367
f 260/184/368 259/189/369 270/190/370
f 260/184/368 270/190/370 265/180/371
f 265/180/371 270/190/370 271/191/372
f 263/182/364 262/183/366 265/180/371
f 265/180/371 262/183/366 260/184/368
f 264/181/361 263/182/364 266/179/373
f 265/180/371 266/179/373 263/182/364
f 266/179/373 265/180/371 267/175/374
f 267/175/374 268/178/375 266/179/373
f 267/175/374 269/176/376 268/178/375
f 277/177/377 269/176/376 267/175/374
f 271/191/372 267/175/374 265/180/371
f 273/192/378 267/175/374 271/191/372
f 267/175/374 273/192/378 277/177/377
f 276/193/379 277/177/377 273/192/378
f 273/192/378 275/194/380 276/193/379
f 274/195/381 275/194/380 273/192/378
f 273/192/378 272/196/382 274/195/381
f 271/191/372 272/196/382 273/192/378
f 393/56/383 105/58/383 106/57/383
f 278/134/384 279/215/385 280/216/386
f 280/216/386 281/57/387 278/134/384
f 285/58/388 281/57/387 280/216/386
f 280/216/386 286/217/389 285/58/388
f 287/218/390 286/217/389 280/216/386
f 280/216/386 283/219/391 287/218/390
f 287/218/390 283/219/391 288/220/392
f 288/220/392 289/221/393 287/218/390
f 291/222/394 289/221/393 288/220/392
f 288/220/392 290/223/395 291/222/394
f 293/224/396 290/223/395 288/220/392
f 288/220/392 292/225/397 293/224/396
f 284/226/398 292/225/397 288/220/392
f 288/220/392 283/219/391 284/226/398
f 283/219/391 282/227/399 284/226/398
f 279/215/385 282/227/399 283/219/391
f 283/219/391 280/216/386 279/215/385
f 135/220/400 134/221/401 136/222/402
f 136/222/402 137/223/403 135/220/400
f 135/220/400 137/223/403 138/224/404
f 138/224/404 139/225/405 135/220/400
f 135/220/400 139/225/405 130/226/406
f 130/226/406 398/219/407 135/220/400
f 398/219/407 130/226/406 129/227/408
f 398/219/407 129/227/408 128/215/409
f 128/215/409 397/216/410 398/219/407
f 397/216/410 128/215/409 126/134/411
f 126/134/411 127/57/412 397/216/410
f 397/216/410 127/57/412 131/58/413
f 131/58/413 132/217/414 397/216/410
f 397/216/410 132/217/414 133/218/415
f 133/218/415 398/219/407 397/216/410
f 135/220/400 398/219/407 133/218/415
f 133/218/415 134/221/401 135/220/400
f 21/228/416 14/174/417 13/229/418
f 13/229/418 310/230/419 21/228/416
f 309/231/420 310/230/419 13/229/418
f 320/232/421 310/230/419 309/231/420
f 309/231/420 317/233/422 320/232/421
f 320/232/421 317/233/422 326/121/197
f 326/121/197 317/233/422 100/234/423
f 100/234/423 101/129/424 326/121/197
f 8/161/234 307/148/214 13/229/418
f 309/231/420 13/229/418 307/148/214
f 307/148/214 20/149/215 309/231/420
f 317/233/422 309/231/420 20/149/215
f 20/149/215 315/150/216 317/233/422
f 100/234/423 317/233/422 315/150/216
f 315/150/216 322/235/425 100/234/423
f 321/236/426 322/235/425 315/150/216
f 315/150/216 316/124/201 321/236/426
f 327/123/200 321/236/426 316/124/201
f 4/158/231 19/159/232 18/167/240
f 18/167/240 19/159/232 25/168/241
f 25/168/241 19/159/232 29/170/427
f 19/159/232 27/171/428 29/170/427
f 19/159/232 10/160/233 27/171/428
f 27/171/428 10/160/233 28/172/429
f 10/160/233 9/173/430 28/172/429
f 8/161/234 9/173/430 10/160/233
f 14/174/417 9/173/430 8/161/234
f 8/161/234 13/229/418 14/174/417
f 103/57/431 104/134/431 392/70/431
f 166/174/255 165/229/432 160/161/254
f 165/229/432 166/174/255 173/228/433
f 173/228/433 407/230/434 165/229/432
f 406/231/435 165/229/432 407/230/434
f 406/231/435 407/230/434 417/232/436
f 417/232/436 414/233/437 406/231/435
f 417/232/436 387/121/167 414/233/437
f 253/234/438 414/233/437 387/121/167
f 387/121/167 252/129/439 253/234/438
f 160/161/254 165/229/432 404/148/263
f 404/148/263 165/229/432 406/231/435
f 406/231/435 172/149/440 404/148/263
f 172/149/440 406/231/435 414/233/437
f 414/233/437 412/150/441 172/149/440
f 412/150/441 414/233/437 253/234/438
f 253/234/438 418/235/442 412/150/441
f 412/150/441 418/235/442 419/236/443
f 419/236/443 413/124/170 412/150/441
f 413/124/170 419/236/443 423/123/169
f 404/148/263 405/147/444 410/126/172
f 404/148/263 172/149/440 405/147/444
f 405/147/444 172/149/440 412/150/441
f 412/150/441 413/124/170 405/147/444
f 410/126/172 405/147/444 413/124/170
f 364/77/445 367/80/446 366/79/447
f 366/79/447 365/78/448 364/77/445
f 364/77/445 365/78/448 363/75/449
f 363/75/450 362/76/451 364/77/450
f 359/74/452 362/76/451 363/75/449
f 363/75/449 360/73/453 359/74/452
f 358/71/454 359/74/452 360/73/453
f 360/73/453 361/72/455 358/71/454
f 86/64/456 90/67/457 87/66/458
f 86/64/456 87/66/458 379/65/459
f 379/65/459 380/63/460 86/64/456
f 89/62/461 86/64/456 380/63/460
f 380/63/460 381/61/462 89/62/461
f 88/59/463 89/62/461 381/61/462
f 381/61/462 382/60/464 88/59/463
f 89/62/461 91/68/465 86/64/456
f 88/59/463 92/69/466 89/62/461
f 219/213/467 218/212/468 226/214/300
f 218/212/468 219/213/467 449/211/469
f 449/211/469 448/201/470 218/212/468
f 448/201/470 449/211/469 450/203/471
f 450/203/471 449/211/469 208/210/472
f 208/210/472 209/208/473 450/203/471
f 209/208/473 208/210/472 224/209/302
f 204/198/474 203/200/475 229/199/476
f 203/200/475 204/198/474 448/201/470
f 448/201/470 451/202/477 203/200/475
f 451/202/477 448/201/470 450/203/471
f 452/204/478 451/202/477 450/203/471
f 452/204/478 450/203/471 214/205/479
f 214/205/479 215/206/480 452/204/478
f 215/206/480 214/205/479 222/207/300
f 384/197/481 385/111/481 98/83/481
f 390/70/482 391/56/482 102/57/482
